<?xml version="1.0" standalone="no"?>
<!DOCTYPE svg PUBLIC "-//W3C//DTD SVG 20010904//EN"
 "http://www.w3.org/TR/2001/REC-SVG-20010904/DTD/svg10.dtd">
<svg version="1.0" xmlns="http://www.w3.org/2000/svg"
 width="512.000000pt" height="512.000000pt" viewBox="0 0 512.000000 512.000000"
 preserveAspectRatio="xMidYMid meet">

<g transform="translate(0.000000,512.000000) scale(0.100000,-0.100000)"
fill="#000000" stroke="none">
<path d="M541 4150 c-171 -36 -320 -181 -366 -355 -18 -72 -22 -532 -4 -617
30 -143 130 -271 260 -333 109 -51 163 -56 374 -39 210 18 255 33 293 99 57
100 -18 235 -132 235 -23 0 -107 -7 -188 -14 -156 -15 -187 -12 -237 23 -54
39 -61 76 -61 332 0 253 4 275 59 322 46 38 81 41 257 18 371 -48 618 -70
1184 -106 822 -52 1067 -80 1420 -161 157 -37 408 -115 490 -153 l45 -21 -45
5 c-25 3 -180 8 -345 12 -403 8 -741 -12 -1220 -72 -307 -39 -764 -105 -788
-115 -29 -11 -73 -59 -86 -93 -33 -87 17 -181 111 -208 21 -6 112 4 302 31
781 112 1037 135 1541 135 478 0 729 -22 1163 -102 108 -20 216 -36 238 -36
108 0 183 115 140 216 -18 44 -61 80 -203 170 -476 301 -920 479 -1448 581
-310 59 -589 87 -1300 131 -447 27 -743 53 -1052 91 -246 31 -342 36 -402 24z"/>
<path d="M503 2374 c-41 -21 -42 -21 -168 -219 -196 -306 -196 -306 -155 -389
31 -62 63 -81 140 -81 49 0 71 5 92 20 14 11 63 77 108 148 46 70 84 127 85
127 2 0 44 -31 94 -68 50 -38 121 -86 156 -107 36 -20 63 -40 61 -44 -2 -3
-27 -82 -56 -175 -57 -187 -60 -229 -21 -285 69 -96 220 -84 269 22 11 23 37
98 58 167 21 69 41 129 45 134 4 4 49 -6 101 -22 51 -17 140 -43 198 -57 58
-15 106 -28 107 -29 2 -1 -6 -76 -18 -167 -23 -187 -21 -226 15 -273 67 -88
212 -79 262 16 11 20 26 99 39 203 l22 170 29 -2 c16 -2 83 -7 149 -13 66 -5
157 -10 203 -10 l82 0 0 -180 c0 -160 2 -185 20 -219 57 -113 223 -113 280 0
18 34 20 59 20 219 l0 180 83 0 c45 0 136 5 202 10 66 6 133 11 149 13 l29 2
22 -170 c13 -104 28 -183 39 -203 50 -95 195 -104 262 -16 36 47 38 86 15 273
-12 91 -20 166 -18 167 1 1 49 14 107 29 58 14 147 40 198 57 52 16 97 26 101
22 4 -5 24 -65 45 -134 21 -69 47 -144 58 -167 49 -106 200 -118 269 -22 39
56 36 98 -21 285 -29 93 -54 172 -56 175 -2 4 25 24 61 44 35 21 106 69 156
107 50 37 92 68 94 68 1 0 39 -57 85 -127 45 -71 93 -136 107 -147 29 -21 88
-31 136 -22 70 13 127 104 113 179 -8 45 -283 472 -320 500 -30 22 -100 33
-141 23 -14 -4 -72 -50 -128 -102 -238 -224 -532 -367 -918 -449 -559 -118
-1389 -105 -1909 30 -183 47 -420 149 -561 240 -82 53 -203 151 -264 215 -22
23 -52 48 -67 56 -35 18 -105 18 -145 -2z"/>
</g>
</svg>
