<?xml version="1.0" standalone="no"?>
<!DOCTYPE svg PUBLIC "-//W3C//DTD SVG 20010904//EN"
 "http://www.w3.org/TR/2001/REC-SVG-20010904/DTD/svg10.dtd">
<svg version="1.0" xmlns="http://www.w3.org/2000/svg"
 width="512.000000pt" height="512.000000pt" viewBox="0 0 512.000000 512.000000"
 preserveAspectRatio="xMidYMid meet">

<g transform="translate(0.000000,512.000000) scale(0.100000,-0.100000)"
fill="#000000" stroke="none">
<path d="M1716 5099 c-26 -20 -26 -21 -26 -159 0 -116 -3 -145 -20 -181 -16
-37 -20 -66 -20 -187 0 -124 -3 -148 -21 -183 -38 -75 -52 -234 -53 -574 0
-296 6 -397 40 -725 18 -180 66 -536 99 -735 20 -124 28 -153 46 -168 48 -39
119 -7 119 53 0 17 -9 85 -20 153 -100 624 -154 1272 -136 1611 l8 139 20 -34
c85 -143 186 -258 293 -335 65 -48 213 -118 295 -141 102 -28 349 -25 453 5
93 27 212 85 221 107 19 51 -13 105 -63 105 -16 0 -53 -11 -83 -25 -182 -83
-419 -87 -595 -9 -178 79 -329 231 -413 418 -44 97 -38 155 20 189 25 15 90
17 680 17 681 0 675 0 712 -44 42 -51 -2 -182 -111 -331 -60 -82 -67 -121 -25
-154 15 -12 36 -21 47 -21 29 0 103 82 157 174 l45 77 6 -63 c26 -254 -7 -794
-81 -1343 -63 -466 -246 -1458 -282 -1532 -7 -14 -26 -36 -41 -47 -28 -20 -38
-21 -427 -21 -389 0 -399 1 -427 21 -15 11 -34 33 -42 49 -7 15 -47 195 -88
399 -54 272 -78 376 -92 389 -26 27 -80 25 -103 -3 -25 -31 -23 -52 21 -282
72 -367 110 -538 130 -577 46 -90 154 -151 268 -151 l53 0 0 -109 c0 -176 40
-257 154 -317 l56 -29 0 -76 c0 -254 207 -449 477 -449 44 0 58 5 78 25 30 29
32 64 6 96 -16 20 -31 24 -103 30 -141 11 -223 61 -278 171 -25 52 -30 73 -30
134 l0 74 49 24 c27 14 65 44 84 67 53 61 67 113 67 246 l0 113 53 0 c115 0
222 61 268 153 36 70 168 735 249 1257 103 664 149 1186 136 1560 -7 227 -21
348 -49 420 -17 44 -22 86 -26 210 -4 96 -11 163 -18 177 -9 14 -13 66 -13
152 0 71 -5 142 -10 157 -21 55 -68 69 -114 33 -25 -20 -26 -23 -26 -135 l0
-114 -125 0 -125 0 0 94 c0 52 -5 107 -10 122 -21 55 -68 69 -114 33 -25 -20
-26 -23 -26 -135 l0 -114 -125 0 -125 0 0 94 c0 52 -5 107 -10 122 -21 55 -68
69 -114 33 -25 -20 -26 -23 -26 -135 l0 -114 -125 0 -125 0 0 94 c0 52 -5 107
-10 122 -21 55 -68 69 -114 33 -25 -20 -26 -23 -26 -135 l0 -114 -125 0 -125
0 0 94 c0 108 -11 149 -46 165 -35 16 -47 14 -78 -10z m1602 -471 l3 -66 -47
14 c-69 21 -1358 21 -1427 0 l-47 -14 0 62 c0 35 3 66 7 69 3 4 344 6 757 5
l751 -3 3 -67z m-628 -3754 c0 -122 -15 -160 -74 -188 -43 -20 -69 -20 -112 0
-59 28 -74 66 -74 188 l0 106 130 0 130 0 0 -106z"/>
<path d="M2475 3251 c-59 -27 -103 -77 -121 -139 -12 -42 -15 -89 -13 -206 4
-144 5 -153 32 -199 15 -26 47 -60 69 -75 36 -24 51 -27 119 -27 70 0 81 3
121 30 23 17 54 51 68 75 24 43 25 52 25 225 0 149 -3 185 -17 210 -58 106
-182 152 -283 106z m134 -157 c19 -24 21 -40 21 -155 0 -139 -9 -176 -47 -185
-36 -9 -68 3 -81 31 -7 16 -12 77 -12 154 0 115 2 131 21 155 13 17 30 26 49
26 19 0 36 -9 49 -26z"/>
</g>
</svg>
