<?xml version="1.0" standalone="no"?>
<!DOCTYPE svg PUBLIC "-//W3C//DTD SVG 20010904//EN"
 "http://www.w3.org/TR/2001/REC-SVG-20010904/DTD/svg10.dtd">
<svg version="1.0" xmlns="http://www.w3.org/2000/svg"
 width="512.000000pt" height="512.000000pt" viewBox="0 0 512.000000 512.000000"
 preserveAspectRatio="xMidYMid meet">

<g transform="translate(0.000000,512.000000) scale(0.100000,-0.100000)"
fill="#000000" stroke="none">
<path d="M1610 5114 c-58 -11 -151 -47 -196 -76 -121 -76 -179 -141 -359 -402
-60 -88 -139 -190 -175 -226 -125 -126 -266 -168 -417 -122 -75 23 -171 77
-219 123 -60 58 -140 60 -199 5 -45 -42 -52 -88 -32 -185 47 -219 222 -416
427 -482 l69 -23 3 -695 4 -696 27 -100 c46 -170 128 -320 244 -445 132 -142
464 -422 685 -578 60 -41 108 -78 108 -81 0 -3 -112 -75 -249 -160 -138 -84
-256 -161 -264 -170 -66 -75 -48 -198 36 -250 41 -25 168 -51 249 -51 35 0 93
7 130 14 36 8 396 148 800 312 403 163 758 307 788 319 l55 21 400 -246 400
-245 6 -105 c4 -58 12 -123 19 -145 43 -144 168 -292 301 -358 244 -120 516
-73 700 120 120 126 178 283 166 449 -18 257 -199 475 -447 539 -103 27 -262
17 -362 -22 l-77 -31 -268 178 c-148 98 -283 194 -300 214 -18 19 -37 54 -44
75 -11 36 -9 45 16 96 27 55 31 59 312 246 l284 190 64 -26 c333 -133 694 40
801 382 8 27 17 86 20 133 14 210 -82 406 -257 526 -102 69 -179 95 -304 101
-182 9 -323 -45 -450 -172 -117 -116 -175 -252 -175 -411 l0 -82 -73 -46 c-41
-25 -81 -48 -90 -52 -16 -6 -17 38 -15 621 l3 628 50 17 c239 81 406 269 451
508 15 78 14 83 -5 127 -16 37 -29 50 -67 66 -63 28 -98 20 -176 -42 -184
-148 -372 -169 -535 -62 -70 46 -142 126 -237 264 -164 236 -192 272 -270 347
-136 130 -269 179 -461 169 -124 -7 -246 -47 -324 -108 -34 -27 -54 -24 -129
21 -100 60 -177 82 -307 85 -60 2 -121 1 -135 -1z m270 -188 c25 -9 74 -36
109 -59 58 -37 72 -42 135 -45 68 -3 74 -2 141 39 98 60 158 80 250 86 201 13
327 -73 515 -348 266 -393 406 -499 655 -499 120 0 263 45 356 111 17 12 32
19 34 17 3 -2 -11 -37 -30 -76 -96 -202 -305 -294 -700 -309 -247 -9 -447 17
-651 86 -159 53 -249 108 -369 223 -108 104 -132 118 -198 118 -54 0 -94 -25
-165 -101 -210 -227 -587 -344 -1047 -326 -391 16 -603 111 -697 314 -17 35
-28 66 -25 69 2 3 25 -9 49 -25 145 -98 343 -128 506 -76 143 45 255 142 393
336 38 55 100 143 138 197 112 159 225 253 338 282 54 13 210 5 263 -14z m475
-1021 c197 -131 466 -211 773 -231 61 -4 112 -9 112 -11 0 -2 -16 -38 -35 -79
-105 -227 -288 -396 -471 -434 -101 -21 -145 2 -197 105 -14 28 -43 67 -64 87
-63 62 -96 68 -347 68 -220 0 -223 0 -275 -26 -55 -28 -83 -61 -134 -153 -46
-87 -101 -107 -208 -75 -182 54 -325 187 -431 399 -61 121 -70 109 99 123 250
20 439 69 620 160 108 53 248 155 300 217 l36 44 68 -68 c37 -38 106 -95 154
-126z m-1540 -231 c27 -4 33 -12 64 -92 68 -176 185 -345 304 -443 128 -104
325 -178 442 -166 106 11 196 79 254 195 17 33 37 62 46 66 9 3 105 6 214 6
225 0 214 4 264 -95 94 -187 289 -223 538 -99 189 95 370 316 459 562 25 68
24 67 123 76 l57 5 0 -659 c0 -612 -1 -659 -17 -678 -10 -10 -422 -268 -916
-571 l-898 -552 -112 77 c-310 214 -656 508 -773 658 -66 84 -127 205 -156
311 -22 78 -22 96 -26 748 l-3 668 53 -6 c29 -3 67 -8 83 -11z m3839 -624
c137 -43 243 -157 282 -305 59 -219 -91 -462 -317 -514 -105 -24 -214 -7 -319
52 -39 21 -63 28 -80 24 -14 -4 -171 -104 -350 -224 -374 -251 -356 -232 -444
-454 -58 -145 -80 -180 -126 -204 -90 -46 -1816 -736 -1868 -746 -65 -12 -198
-7 -214 9 -5 5 613 391 1419 886 786 483 1437 887 1448 897 17 17 20 33 20
152 0 127 1 134 32 199 55 116 166 210 279 237 69 16 168 12 238 -9z m-773
-1901 c165 -110 311 -204 326 -210 24 -9 40 -4 118 33 89 43 91 43 200 43 105
0 114 -2 180 -34 263 -129 324 -464 124 -676 -205 -217 -564 -159 -692 112
-31 66 -32 72 -32 200 0 119 -3 135 -20 152 -11 11 -182 120 -380 241 -198
122 -364 225 -369 230 -5 5 14 20 42 34 28 14 72 50 98 80 l48 54 29 -29 c16
-17 164 -120 328 -230z"/>
<path d="M4436 2885 c-140 -50 -207 -219 -140 -353 103 -206 405 -178 470 44
57 197 -136 378 -330 309z m145 -184 c17 -18 29 -40 29 -56 0 -38 -50 -85 -90
-85 -44 0 -80 39 -80 85 0 79 84 112 141 56z"/>
<path d="M3120 1697 c-32 -16 -54 -61 -46 -93 24 -95 166 -79 166 19 0 59 -68
101 -120 74z"/>
<path d="M4415 826 c-92 -43 -144 -126 -145 -229 0 -98 44 -174 128 -220 107
-58 221 -42 304 43 83 86 98 197 41 301 -63 117 -206 163 -328 105z m163 -166
c45 -42 34 -112 -21 -138 -83 -40 -158 68 -92 133 30 31 82 33 113 5z"/>
</g>
</svg>
