<?xml version="1.0" standalone="no"?>
<!DOCTYPE svg PUBLIC "-//W3C//DTD SVG 20010904//EN"
 "http://www.w3.org/TR/2001/REC-SVG-20010904/DTD/svg10.dtd">
<svg version="1.0" xmlns="http://www.w3.org/2000/svg"
 width="512.000000pt" height="512.000000pt" viewBox="0 0 512.000000 512.000000"
 preserveAspectRatio="xMidYMid meet">

<g transform="translate(0.000000,512.000000) scale(0.100000,-0.100000)"
fill="#000000" stroke="none">
<path d="M1680 5110 c-120 -21 -224 -87 -275 -175 -36 -60 -58 -174 -50 -255
8 -79 30 -180 51 -237 15 -40 14 -44 -4 -70 -86 -122 -151 -377 -152 -589 0
-81 0 -82 -27 -89 -72 -17 -98 -94 -47 -134 33 -26 46 -26 117 -2 197 68 493
40 705 -66 89 -44 95 -46 120 -32 15 8 33 26 41 40 12 22 12 29 0 54 -27 56
-232 145 -409 176 -41 8 -138 13 -214 13 l-139 0 6 96 c10 167 57 349 112 431
l25 39 425 0 425 0 0 -180 c0 -104 4 -189 11 -202 5 -13 40 -44 77 -68 89 -59
154 -127 187 -194 45 -92 54 -180 55 -511 0 -295 -1 -301 -24 -350 -13 -27
-34 -60 -47 -72 -34 -31 -226 -134 -356 -192 l-112 -50 6 47 c7 62 -21 102
-73 102 -34 0 -51 -12 -87 -64 -31 -46 -91 -69 -166 -64 -55 3 -86 13 -186 60
-137 65 -204 84 -325 94 -103 8 -397 93 -417 120 -14 20 -17 53 -5 69 4 6 109
106 234 223 141 132 230 223 234 238 13 51 -45 105 -93 87 -11 -4 -126 -107
-256 -227 -193 -179 -240 -228 -257 -267 -33 -78 -22 -158 31 -222 35 -42 81
-64 229 -107 63 -18 116 -35 118 -36 2 -1 -4 -41 -13 -88 -15 -78 -15 -91 -1
-140 14 -49 45 -89 98 -128 16 -12 14 -25 -18 -183 -61 -300 -65 -330 -54
-403 28 -171 156 -302 328 -333 101 -19 327 11 500 66 42 14 83 25 90 25 9 0
12 -34 12 -137 l0 -138 -325 -114 c-178 -62 -331 -121 -340 -131 -38 -42 -4
-120 53 -120 15 0 306 99 647 219 341 120 621 217 622 217 1 -1 -6 -29 -16
-61 -11 -33 -25 -95 -32 -137 -16 -96 -13 -102 97 -215 71 -73 78 -84 60 -88
-12 -3 -106 -21 -210 -41 -104 -19 -197 -39 -208 -45 -23 -12 -33 -54 -22 -88
21 -59 6 -61 694 69 349 66 635 118 635 117 1 -1 9 -40 18 -86 53 -279 274
-464 552 -465 237 0 447 152 525 380 87 250 -30 543 -266 666 -265 139 -570
57 -736 -196 -21 -33 -43 -77 -50 -98 -7 -25 -18 -40 -32 -43 -12 -3 -142 -28
-291 -56 -381 -72 -419 -67 -560 77 l-63 63 9 48 c24 129 74 227 140 273 17
13 163 70 323 126 l290 102 39 -33 c81 -69 235 -125 347 -125 120 0 280 60
372 140 57 50 128 154 158 235 14 38 24 93 28 148 5 84 6 88 26 82 12 -3 55
-8 96 -11 141 -11 269 35 371 135 67 65 75 96 34 136 -36 37 -67 32 -125 -20
-28 -25 -74 -57 -103 -72 -45 -23 -64 -27 -142 -28 -79 0 -97 3 -147 28 -48
23 -65 40 -103 97 -99 148 -252 235 -436 247 l-87 6 24 90 c14 49 64 194 113
321 140 365 141 372 77 402 -29 15 -36 15 -62 1 -25 -13 -38 -37 -93 -184
-127 -337 -162 -436 -183 -516 -12 -45 -25 -86 -29 -91 -6 -6 -130 79 -183
125 -5 4 8 30 28 58 118 160 173 394 131 556 -33 124 -120 230 -232 283 -50
23 -71 27 -148 27 -77 0 -98 -4 -148 -27 -116 -55 -209 -174 -236 -306 -7 -34
-11 -224 -11 -540 0 -312 -4 -501 -11 -525 -14 -53 -66 -107 -179 -187 -369
-263 -799 -452 -1122 -491 -145 -17 -216 -2 -286 65 -40 37 -58 69 -72 127 -9
38 -3 78 37 286 l47 242 45 -7 c74 -11 251 -7 311 7 73 18 171 63 230 105 27
19 113 60 192 91 79 32 224 98 322 148 210 107 268 154 318 255 l33 67 0 365
c0 320 -2 373 -18 430 -42 151 -105 247 -227 341 l-80 62 0 185 0 185 35 33
c58 55 139 68 210 35 22 -11 105 -74 185 -141 87 -73 169 -134 206 -151 164
-78 413 -79 578 -1 108 52 143 108 99 160 -19 21 -333 251 -371 271 -63 34
-134 -55 -89 -111 6 -8 66 -55 132 -103 66 -48 121 -90 123 -94 4 -13 -105
-31 -184 -31 -85 0 -162 15 -220 41 -22 11 -108 76 -190 144 -187 157 -229
179 -344 180 -77 0 -92 -3 -152 -33 -36 -18 -82 -50 -102 -72 l-36 -40 -198 0
-198 0 -12 33 c-24 68 -42 165 -42 232 0 113 46 186 140 221 35 14 92 19 263
23 215 6 219 6 238 30 26 32 24 67 -6 96 l-24 25 -428 -1 c-235 -1 -448 -5
-473 -9z m190 -172 c-39 -68 -53 -145 -47 -253 4 -55 13 -125 22 -155 8 -30
15 -58 15 -62 0 -5 -68 -8 -150 -8 l-150 0 -11 28 c-46 119 -58 290 -25 352
49 93 124 127 288 129 l77 1 -19 -32z m1608 -1604 c219 -91 211 -456 -14 -682
-105 -105 -213 -138 -289 -88 l-26 17 3 282 c3 272 4 284 27 334 25 57 83 116
135 139 42 18 118 17 164 -2z m-2051 -829 c53 -10 118 -34 203 -75 102 -49
139 -62 194 -67 67 -6 69 -7 48 -23 -11 -9 -53 -28 -94 -41 -59 -19 -94 -24
-183 -24 -189 0 -316 46 -302 109 3 12 11 47 17 79 7 35 17 57 25 57 7 0 48
-7 92 -15z m2168 -106 c52 -39 95 -74 95 -76 0 -3 -23 -26 -52 -51 -170 -153
-228 -404 -142 -618 14 -36 23 -68 20 -71 -4 -5 -1244 -443 -1253 -443 -2 0
-3 64 -3 143 l0 142 148 72 c167 81 318 170 476 281 143 101 190 148 229 230
31 66 32 71 35 233 l4 167 36 -10 c65 -18 157 -4 231 35 36 19 69 35 74 36 4
1 50 -31 102 -70z m504 -140 c123 -28 226 -110 283 -226 31 -64 33 -74 33
-173 0 -99 -2 -110 -33 -172 -97 -197 -312 -285 -511 -209 -29 11 -63 27 -77
36 l-24 16 36 37 c20 20 51 66 68 102 l30 65 7 250 c4 138 8 255 8 262 2 22
107 29 180 12z m-339 -291 c-4 -154 -9 -220 -19 -238 -17 -31 -62 -80 -73 -80
-15 0 -46 82 -57 148 -19 118 18 243 100 336 22 25 44 46 47 46 4 0 5 -96 2
-212z m692 -908 c83 -25 165 -85 211 -152 56 -81 70 -130 71 -238 1 -87 -2
-101 -31 -162 -125 -264 -456 -326 -659 -124 -156 157 -161 401 -11 563 109
118 265 161 419 113z"/>
<path d="M2786 5097 c-33 -33 -33 -71 -1 -102 24 -24 28 -25 182 -25 495 0
760 -92 1009 -351 78 -82 128 -148 198 -259 l46 -74 0 -96 c0 -132 -17 -339
-41 -500 -35 -232 -34 -218 -9 -245 28 -29 69 -32 99 -7 44 36 93 399 95 702
l1 195 -55 90 c-164 267 -341 440 -565 550 -206 101 -367 134 -707 142 l-226
6 -26 -26z"/>
<path d="M1603 3270 c-24 -10 -43 -39 -43 -68 0 -79 180 -127 329 -87 89 23
124 77 86 132 -20 29 -56 35 -105 18 -54 -19 -136 -19 -190 0 -48 17 -47 17
-77 5z"/>
<path d="M2405 878 c-51 -27 -60 -84 -20 -123 60 -60 158 6 125 84 -11 27 -46
51 -73 51 -7 0 -21 -6 -32 -12z"/>
<path d="M645 571 c-292 -103 -539 -192 -550 -198 -53 -30 -95 -104 -95 -171
0 -54 45 -138 89 -168 64 -42 99 -40 441 25 173 32 617 116 985 186 369 69
685 131 703 136 81 26 64 139 -22 139 -18 0 -475 -83 -1016 -185 -540 -102
-990 -183 -1001 -180 -22 7 -36 52 -22 73 5 8 94 45 198 82 105 36 343 120
529 185 187 66 348 127 359 136 31 24 27 76 -7 106 -15 12 -35 23 -44 22 -9 0
-255 -85 -547 -188z"/>
</g>
</svg>
