<?xml version="1.0" standalone="no"?>
<!DOCTYPE svg PUBLIC "-//W3C//DTD SVG 20010904//EN"
 "http://www.w3.org/TR/2001/REC-SVG-20010904/DTD/svg10.dtd">
<svg version="1.0" xmlns="http://www.w3.org/2000/svg"
 width="512.000000pt" height="512.000000pt" viewBox="0 0 512.000000 512.000000"
 preserveAspectRatio="xMidYMid meet">

<g transform="translate(0.000000,512.000000) scale(0.100000,-0.100000)"
fill="#000000" stroke="none">
<path d="M2057 5110 c-268 -33 -532 -130 -753 -279 -114 -76 -190 -143 -198
-176 -15 -61 57 -137 115 -122 13 4 65 38 116 76 170 129 349 216 545 266 166
42 261 47 744 42 408 -4 458 -6 542 -25 476 -106 845 -393 1052 -817 95 -194
138 -369 147 -594 l6 -144 -207 7 c-225 7 -338 22 -461 62 -197 64 -347 176
-379 284 -9 29 -16 63 -16 75 0 12 -12 34 -26 49 -21 20 -37 26 -71 26 -61 0
-87 -28 -101 -108 -25 -140 -161 -254 -390 -326 -188 -59 -173 -58 -1111 -63
l-864 -5 6 149 c4 104 14 180 32 258 32 139 32 165 0 198 -52 52 -133 37 -162
-30 -35 -84 -64 -264 -70 -438 l-6 -171 -49 -29 c-27 -17 -73 -55 -103 -86
-176 -185 -179 -467 -7 -659 104 -116 221 -160 423 -160 l127 0 22 -55 c75
-186 258 -421 442 -570 l76 -62 -45 -54 c-151 -182 -262 -407 -314 -638 -27
-122 -41 -365 -37 -661 3 -226 5 -259 21 -283 10 -16 29 -32 43 -37 34 -13
2794 -13 2828 0 14 5 33 21 43 37 16 24 18 57 21 283 7 518 -28 739 -155 995
-52 104 -131 226 -196 304 l-45 54 72 57 c83 67 201 188 269 278 61 78 148
225 177 297 l22 55 127 0 c200 0 296 34 408 146 187 189 191 482 8 673 -30 31
-76 69 -103 86 l-49 30 -6 165 c-6 182 -22 288 -67 439 -163 549 -625 1003
-1167 1147 -207 55 -216 56 -728 59 -264 2 -511 -1 -548 -5z m1273 -1740 c152
-117 405 -202 643 -217 l107 -6 0 -194 c0 -156 -4 -215 -20 -294 -187 -915
-1321 -1397 -2235 -949 -405 198 -682 541 -765 949 -16 79 -20 138 -20 289 l0
190 723 5 c680 4 729 6 835 26 234 43 425 128 546 243 l71 67 30 -34 c17 -18
55 -52 85 -75z m-2496 -426 c4 -108 13 -233 21 -278 8 -44 15 -85 15 -90 0 -4
-46 -6 -102 -4 -91 3 -109 7 -157 33 -209 114 -195 417 23 516 28 13 65 19
117 19 l76 0 7 -196z m3652 177 c217 -99 231 -402 23 -516 -48 -26 -66 -30
-156 -33 -57 -2 -103 0 -103 4 0 5 7 46 15 90 8 45 17 170 21 278 l7 196 76 0
c52 0 89 -6 117 -19z m-2812 -1560 c9 -13 189 -90 296 -126 l95 -32 6 -50 c24
-189 159 -347 349 -408 76 -25 205 -23 290 4 182 58 316 217 339 405 l6 50 70
22 c86 26 234 87 296 122 l46 25 39 -43 c191 -210 308 -488 321 -762 l6 -118
-187 0 -186 0 0 75 c0 111 -28 155 -100 155 -42 0 -67 -15 -85 -50 -12 -24
-15 -81 -15 -330 l0 -300 -700 0 -700 0 0 300 c0 249 -3 306 -15 330 -18 35
-43 50 -85 50 -72 0 -100 -44 -100 -155 l0 -75 -185 0 -185 0 0 84 c0 254 116
552 300 770 53 63 73 76 84 57z m816 -217 c98 -4 192 -3 254 5 54 6 101 10
103 7 10 -10 -38 -98 -76 -139 -152 -164 -428 -96 -496 122 -7 22 -5 23 26 17
19 -3 104 -9 189 -12z m-830 -1019 l0 -125 -185 0 -185 0 0 125 0 125 185 0
185 0 0 -125z m2170 0 l0 -125 -185 0 -185 0 0 125 0 125 185 0 185 0 0 -125z"/>
<path d="M1772 2853 c-70 -34 -101 -125 -67 -197 53 -111 211 -112 265 -1 11
23 20 52 20 65 0 44 -38 105 -79 128 -46 26 -93 28 -139 5z"/>
<path d="M3213 2850 c-44 -23 -83 -83 -83 -130 0 -44 38 -105 79 -128 95 -54
206 3 218 112 14 119 -106 201 -214 146z"/>
<path d="M2314 2546 c-40 -40 -44 -73 -13 -122 22 -37 82 -81 139 -105 21 -8
69 -14 120 -14 101 0 171 28 232 91 45 46 56 89 34 132 -34 65 -104 71 -166
16 -29 -26 -52 -38 -83 -41 -44 -5 -117 17 -117 36 0 15 -54 41 -86 41 -16 0
-38 -12 -60 -34z"/>
<path d="M2254 652 c-51 -41 -57 -97 -15 -144 l29 -33 292 0 292 0 29 33 c42
47 36 103 -15 144 -19 16 -51 18 -306 18 -255 0 -287 -2 -306 -18z"/>
<path d="M863 4376 c-46 -21 -68 -69 -54 -117 22 -72 108 -94 162 -40 39 40
40 89 2 130 -34 37 -68 45 -110 27z"/>
</g>
</svg>
