<?xml version="1.0" standalone="no"?>
<!DOCTYPE svg PUBLIC "-//W3C//DTD SVG 20010904//EN"
 "http://www.w3.org/TR/2001/REC-SVG-20010904/DTD/svg10.dtd">
<svg version="1.0" xmlns="http://www.w3.org/2000/svg"
 width="512.000000pt" height="512.000000pt" viewBox="0 0 512.000000 512.000000"
 preserveAspectRatio="xMidYMid meet">

<g transform="translate(0.000000,512.000000) scale(0.100000,-0.100000)"
fill="#000000" stroke="none">
<path d="M1382 5105 c-80 -22 -112 -43 -128 -80 -14 -34 -9 -50 281 -881 163
-466 294 -849 292 -851 -4 -3 -136 42 -537 182 -734 258 -1140 396 -1162 397
-74 3 -122 -91 -122 -237 0 -127 25 -189 113 -275 61 -59 117 -93 639 -384
314 -175 572 -321 572 -324 0 -4 -269 -277 -598 -607 -640 -641 -645 -647
-698 -800 -25 -70 -28 -94 -28 -200 0 -103 4 -131 28 -202 15 -48 47 -113 76
-155 64 -96 500 -530 589 -587 131 -84 321 -119 471 -87 142 30 312 132 358
215 24 42 29 111 11 158 -5 15 -156 174 -335 353 l-324 326 0 43 c0 41 5 49
80 125 l79 81 378 -378 c337 -336 382 -377 410 -377 17 0 39 3 48 6 20 8 45
55 45 86 0 16 -103 126 -380 403 l-380 380 100 100 100 100 378 -378 c336
-336 381 -377 409 -377 17 0 39 3 48 6 24 10 48 62 40 93 -4 16 -141 162 -381
401 l-374 375 100 100 100 100 334 -334 334 -334 -5 -122 c-22 -504 272 -997
677 -1137 183 -63 372 -16 516 127 110 109 173 266 196 487 50 468 -259 1025
-646 1163 l-61 22 -57 144 c-32 79 -65 161 -73 181 -14 35 -13 39 8 63 l22 25
177 -69 c192 -75 198 -78 198 -91 0 -27 47 -129 91 -196 181 -277 546 -471
939 -499 170 -13 334 19 490 92 56 27 93 54 145 107 138 141 183 303 136 488
-72 280 -341 526 -703 643 -156 51 -277 68 -434 62 l-132 -4 -333 333 -334
334 100 100 100 100 380 -380 c277 -277 387 -380 403 -380 31 0 78 25 86 45 3
9 6 31 6 48 0 28 -41 73 -377 409 l-378 378 100 100 100 100 380 -380 c277
-277 387 -380 403 -380 31 0 78 25 86 45 3 9 6 31 6 48 0 28 -41 73 -377 410
l-378 378 81 79 c76 75 84 80 125 80 l43 0 321 -319 c176 -175 334 -326 352
-335 129 -65 278 56 359 289 25 70 28 94 28 200 0 103 -4 131 -28 202 -43 131
-98 202 -363 464 -259 258 -318 303 -447 346 -69 23 -98 27 -201 27 -106 0
-130 -3 -200 -28 -153 -53 -159 -58 -800 -698 -331 -329 -603 -598 -607 -598
-3 0 -149 258 -324 572 -291 522 -325 578 -384 639 -50 50 -79 71 -125 88 -77
29 -183 36 -253 16z m171 -167 c88 -26 93 -35 628 -993 276 -495 511 -915 522
-934 20 -33 20 -34 1 -29 -34 10 -659 230 -662 233 -5 4 -602 1719 -602 1728
0 11 68 8 113 -5z m2683 -19 c32 -12 77 -33 99 -47 22 -13 148 -133 281 -266
267 -268 299 -312 324 -455 23 -126 -20 -280 -104 -376 l-35 -40 -318 317
c-235 234 -330 322 -363 337 -61 28 -159 28 -220 0 -34 -15 -175 -150 -595
-570 l-551 -550 -97 174 c-53 95 -97 178 -97 183 0 5 276 285 613 621 583 581
616 612 687 647 41 20 95 41 120 46 68 14 189 4 256 -21z m-2366 -1826 c916
-320 1675 -584 1688 -588 15 -4 45 5 96 29 103 50 173 67 302 73 134 7 244 -8
374 -49 235 -75 433 -213 538 -376 58 -90 77 -151 76 -247 0 -67 -5 -89 -27
-132 -55 -107 -128 -164 -263 -207 -223 -69 -433 -56 -676 42 -132 53 -256
133 -347 223 -90 89 -137 164 -166 266 -12 41 -30 82 -41 92 -21 21 -425 179
-478 188 -55 9 -99 -14 -186 -93 -45 -42 -97 -82 -116 -90 -47 -20 -141 -17
-189 5 -22 10 -260 142 -530 293 -533 300 -1444 813 -1593 898 -122 69 -162
124 -162 223 0 33 3 39 18 35 9 -3 766 -266 1682 -585z m1770 -373 c0 -3 -17
-12 -38 -21 -37 -16 -38 -15 -237 54 -110 38 -245 84 -300 103 l-100 34 -62
113 -63 112 103 103 102 102 297 -297 c164 -164 298 -300 298 -303z m-1962
-257 l173 -96 -559 -561 c-612 -614 -582 -579 -582 -702 1 -105 12 -120 358
-466 l316 -317 -29 -31 c-40 -42 -156 -97 -230 -111 -115 -21 -245 7 -347 75
-29 19 -159 142 -288 273 -201 203 -240 248 -267 303 -54 113 -66 216 -38 325
36 138 25 126 684 788 339 339 620 617 625 617 5 0 88 -43 184 -97z m524 -292
c21 -12 34 -34 52 -86 13 -38 60 -173 104 -300 79 -228 79 -230 64 -265 -9
-19 -18 -37 -20 -40 -1 -2 -138 131 -302 295 l-300 300 102 102 102 102 85
-46 c47 -25 98 -53 113 -62z m614 -281 c36 -96 73 -183 82 -192 8 -10 51 -29
96 -43 45 -13 111 -43 146 -66 274 -177 466 -613 421 -953 -31 -229 -105 -362
-241 -431 -254 -129 -610 140 -754 570 -43 128 -59 243 -53 380 6 137 22 206
73 312 l36 75 -83 241 c-45 133 -84 247 -86 252 -2 6 27 9 79 7 61 -2 99 2
143 16 33 10 63 16 67 13 4 -3 37 -85 74 -181z"/>
<path d="M2369 2631 c-40 -40 -36 -93 10 -128 48 -37 131 6 131 67 0 40 -47
90 -85 90 -16 0 -38 -12 -56 -29z"/>
<path d="M3973 2440 c-202 -21 -314 -110 -314 -246 0 -178 222 -375 507 -450
107 -28 299 -26 385 4 125 43 195 129 187 231 -6 84 -40 145 -132 236 -88 88
-179 142 -316 188 -67 23 -99 29 -215 41 -16 2 -62 0 -102 -4z m216 -186 c141
-34 283 -122 353 -218 52 -72 33 -106 -72 -130 -132 -31 -269 -11 -415 60 -88
43 -198 140 -220 195 -12 32 -12 39 1 57 34 49 222 68 353 36z"/>
<path d="M2882 1458 c-80 -14 -139 -73 -171 -171 -85 -255 -6 -571 194 -773
88 -88 149 -124 227 -132 91 -9 184 51 222 143 24 57 46 178 46 254 0 188 -89
406 -225 550 -98 104 -195 147 -293 129z m172 -250 c42 -44 72 -89 102 -153
73 -153 90 -272 58 -405 -24 -105 -58 -124 -130 -72 -135 98 -235 305 -235
483 0 102 24 203 54 224 31 22 82 -4 151 -77z"/>
</g>
</svg>
