<?xml version="1.0" standalone="no"?>
<!DOCTYPE svg PUBLIC "-//W3C//DTD SVG 20010904//EN"
 "http://www.w3.org/TR/2001/REC-SVG-20010904/DTD/svg10.dtd">
<svg version="1.0" xmlns="http://www.w3.org/2000/svg"
 width="512.000000pt" height="512.000000pt" viewBox="0 0 512.000000 512.000000"
 preserveAspectRatio="xMidYMid meet">

<g transform="translate(0.000000,512.000000) scale(0.100000,-0.100000)"
fill="#000000" stroke="none">
<path d="M4490 4917 c-35 -18 -60 -73 -60 -135 0 -72 21 -118 63 -138 43 -20
80 -13 113 23 21 23 24 35 24 110 0 95 -8 116 -50 138 -35 18 -57 19 -90 2z"/>
<path d="M1015 4606 c-46 -46 -43 -112 8 -150 70 -52 174 15 153 100 -18 70
-112 99 -161 50z"/>
<path d="M1841 4609 c-168 -44 -305 -142 -414 -297 -132 -188 -306 -305 -545
-369 -84 -23 -117 -26 -242 -26 -130 0 -154 3 -230 27 -131 42 -142 43 -181 8
-28 -25 -34 -37 -34 -70 0 -51 11 -63 143 -155 198 -139 439 -279 630 -366
l72 -33 -49 -39 c-97 -77 -183 -216 -217 -352 -22 -82 -21 -234 1 -317 9 -36
32 -97 51 -137 l34 -71 -30 -70 c-159 -373 -59 -781 254 -1044 113 -95 284
-173 437 -198 l66 -12 17 -61 c132 -472 582 -783 1059 -730 417 47 751 339
857 749 l10 42 68 11 c300 51 555 243 682 513 56 121 80 228 80 366 0 137 -19
239 -67 350 l-35 83 36 72 c47 95 66 181 66 297 0 111 -19 198 -61 287 -35 74
-112 173 -174 224 l-44 37 85 41 c47 22 88 41 90 41 15 0 303 169 421 247 195
129 240 165 248 203 9 42 -11 87 -46 105 -37 20 -46 19 -133 -10 -178 -60
-384 -55 -585 14 -204 70 -335 166 -462 337 -80 109 -134 163 -211 214 -125
82 -259 116 -417 107 -160 -9 -292 -68 -407 -182 -39 -38 -78 -81 -88 -95
l-16 -24 -16 24 c-10 14 -49 57 -88 95 -160 159 -396 222 -615 164z m361 -222
c126 -62 220 -182 249 -318 59 -273 -163 -573 -496 -670 -68 -20 -103 -24
-230 -24 -173 0 -278 19 -473 86 -117 40 -395 170 -484 225 l-47 30 92 12
c155 21 345 94 495 189 76 48 203 172 260 253 92 132 180 205 290 241 44 15
81 18 163 16 99 -2 110 -4 181 -40z m1049 27 c112 -33 203 -105 293 -233 166
-235 464 -412 763 -453 l92 -12 -47 -30 c-89 -55 -367 -185 -484 -225 -193
-66 -300 -85 -473 -85 -128 -1 -162 3 -230 23 -220 64 -399 219 -475 411 -27
67 -37 187 -21 259 34 158 151 289 306 343 65 22 203 23 276 2z m-656 -842
c48 -77 182 -203 277 -262 l87 -53 -25 -31 c-70 -84 -185 -148 -301 -166 -152
-25 -308 28 -421 141 -29 29 -52 55 -52 58 0 3 29 21 64 40 94 50 201 144 270
238 34 45 63 82 66 82 3 1 18 -20 35 -47z m-1190 -361 c155 -34 301 -45 425
-32 61 6 116 14 123 16 6 3 23 -14 37 -36 14 -23 60 -74 102 -114 129 -124
283 -185 468 -185 118 0 201 19 308 71 89 43 193 132 257 219 l35 48 43 -11
c23 -6 110 -11 192 -11 126 0 172 4 289 28 161 33 177 31 274 -34 136 -91 207
-228 206 -395 -2 -106 -22 -172 -83 -266 -23 -35 -41 -75 -41 -90 0 -15 18
-60 39 -101 64 -119 85 -204 85 -338 -1 -133 -27 -231 -89 -334 -127 -211
-321 -333 -568 -356 -132 -13 -139 -20 -171 -161 -13 -57 -36 -130 -50 -162
-72 -164 -213 -313 -368 -390 -133 -67 -196 -81 -358 -82 -160 0 -222 14 -355
80 -213 105 -362 295 -416 530 -11 50 -23 101 -27 114 -13 44 -51 61 -153 71
-146 14 -237 47 -360 131 -134 90 -251 267 -285 429 -32 153 -2 337 82 485 19
34 34 73 34 86 0 13 -18 51 -40 84 -134 201 -115 442 49 606 56 56 165 119
206 119 11 0 61 -9 110 -19z"/>
<path d="M1999 1641 c-25 -26 -29 -37 -29 -88 0 -321 308 -597 635 -570 296
25 544 283 545 565 0 57 -3 67 -29 93 -37 37 -88 39 -127 6 -22 -19 -29 -38
-40 -106 -7 -45 -24 -106 -37 -135 -82 -178 -292 -268 -479 -205 -154 52 -247
168 -268 334 -8 70 -13 83 -40 108 -42 38 -92 37 -131 -2z"/>
<path d="M4169 4601 c-39 -39 -40 -89 -1 -131 22 -26 37 -32 84 -37 119 -12
178 21 178 101 0 37 -5 48 -31 70 -28 24 -39 26 -116 26 -80 0 -86 -2 -114
-29z"/>
<path d="M4665 4606 c-47 -47 -43 -112 9 -150 40 -30 172 -30 213 0 36 27 50
73 33 114 -19 45 -56 60 -150 60 -72 0 -84 -3 -105 -24z"/>
<path d="M4465 4406 c-29 -29 -39 -80 -32 -154 5 -47 11 -62 37 -84 42 -39 92
-38 131 1 27 28 29 34 29 114 0 77 -2 88 -26 116 -22 26 -33 31 -70 31 -34 0
-51 -6 -69 -24z"/>
<path d="M325 3126 c-46 -46 -43 -112 8 -150 70 -52 174 15 153 100 -18 70
-112 99 -161 50z"/>
<path d="M325 1646 c-46 -46 -43 -112 8 -150 70 -52 174 15 153 100 -18 70
-112 99 -161 50z"/>
<path d="M4585 1658 c-71 -41 -66 -142 8 -173 43 -18 82 -9 112 27 69 82 -27
199 -120 146z"/>
<path d="M519 951 c-28 -28 -29 -34 -29 -116 0 -82 1 -88 29 -116 34 -34 86
-39 126 -13 38 25 55 111 39 193 -16 80 -108 109 -165 52z"/>
<path d="M260 679 c-58 -24 -82 -76 -60 -130 19 -44 56 -59 148 -59 70 0 82 3
105 24 49 45 46 111 -6 150 -32 23 -145 33 -187 15z"/>
<path d="M743 676 c-39 -18 -53 -43 -53 -94 0 -33 6 -45 31 -66 28 -24 39 -26
116 -26 80 0 86 2 114 29 39 40 40 89 1 132 -26 29 -34 32 -103 36 -50 2 -84
-1 -106 -11z"/>
<path d="M4010 679 c-78 -31 -92 -118 -26 -171 49 -40 136 -8 152 56 17 70
-60 141 -126 115z"/>
<path d="M545 479 c-44 -25 -55 -51 -55 -131 0 -42 5 -89 12 -103 12 -27 54
-55 83 -55 32 0 77 32 91 65 27 67 12 179 -29 213 -22 18 -78 24 -102 11z"/>
<path d="M1530 477 c-38 -18 -63 -77 -50 -113 16 -42 39 -63 75 -70 111 -21
159 133 58 185 -28 14 -52 14 -83 -2z"/>
</g>
</svg>
